<svg width="121" height="120" viewBox="0 0 121 120" fill="none" xmlns="http://www.w3.org/2000/svg">
<path fill-rule="evenodd" clip-rule="evenodd" d="M60.7897 17.1429V14.8052L54.5548 8.57143L60.7897 2.33764V0H40.9161C29.0794 0 19.4839 9.5939 19.4839 21.4286C19.4839 33.2632 29.0794 42.8571 40.9161 42.8571H99.3678C101.735 42.8571 103.654 44.7759 103.654 47.1429C103.654 49.5098 101.735 51.4286 99.3678 51.4286L21.4323 51.4286C9.59555 51.4286 0 61.0225 0 72.8571C0 84.6918 9.59555 94.2857 21.4323 94.2857L99.3677 94.2857C101.735 94.2857 103.654 96.2045 103.654 98.5714C103.654 100.938 101.735 102.857 99.3677 102.857L9.74194 102.857V120L99.3678 120C111.204 120 120.8 110.406 120.8 98.5714C120.8 86.7367 111.204 77.1429 99.3678 77.1429L21.4323 77.1429C19.0649 77.1429 17.1458 75.2241 17.1458 72.8571C17.1458 70.4902 19.0649 68.5714 21.4323 68.5714L99.3678 68.5714C111.204 68.5714 120.8 58.9775 120.8 47.1429C120.8 35.3082 111.204 25.7143 99.3678 25.7143H40.9161C38.5488 25.7143 36.6297 23.7955 36.6297 21.4286C36.6297 19.0616 38.5488 17.1429 40.9161 17.1429H60.7897ZM44.0336 12.4675C41.8814 12.4675 40.1368 10.7232 40.1368 8.57143C40.1368 6.41967 41.8814 4.67532 44.0336 4.67532C46.1857 4.67532 47.9303 6.41967 47.9303 8.57143C47.9303 10.7232 46.1857 12.4675 44.0336 12.4675Z" fill="#5F5A5A"/>
</svg>
