<svg width="303" height="300" viewBox="0 0 303 300" fill="none" xmlns="http://www.w3.org/2000/svg">
<path fill-rule="evenodd" clip-rule="evenodd" d="M152.117 42.8571V37.013L136.532 21.4286L152.117 5.8441V0H102.441C72.8548 0 48.8701 23.9847 48.8701 53.5714C48.8701 83.1581 72.8548 107.143 102.441 107.143H248.545C254.463 107.143 259.26 111.94 259.26 117.857C259.26 123.774 254.463 128.571 248.545 128.571L53.7402 128.571C24.1535 128.571 0.168762 152.556 0.168762 182.143C0.168762 211.73 24.1535 235.714 53.7402 235.714L248.545 235.714C254.463 235.714 259.26 240.511 259.26 246.429C259.26 252.346 254.463 257.143 248.545 257.143L24.5194 257.143V300L248.545 300C278.132 300 302.117 276.015 302.117 246.429C302.117 216.842 278.132 192.857 248.545 192.857L53.7402 192.857C47.8229 192.857 43.0259 188.06 43.0259 182.143C43.0259 176.226 47.8229 171.429 53.7402 171.429L248.545 171.429C278.132 171.429 302.117 147.444 302.117 117.857C302.117 88.2704 278.132 64.2857 248.545 64.2857H102.441C96.5242 64.2857 91.7272 59.4888 91.7272 53.5714C91.7272 47.6541 96.5242 42.8571 102.441 42.8571H152.117ZM110.234 31.1688C104.854 31.1688 100.493 26.808 100.493 21.4286C100.493 16.0492 104.854 11.6883 110.234 11.6883C115.613 11.6883 119.974 16.0492 119.974 21.4286C119.974 26.808 115.613 31.1688 110.234 31.1688Z" fill="#9BFF5D"/>
</svg>
