<svg width="303" height="300" viewBox="0 0 303 300" fill="none" xmlns="http://www.w3.org/2000/svg">
<path fill-rule="evenodd" clip-rule="evenodd" d="M152.286 42.8571V37.013L136.701 21.4286L152.286 5.8441V0H102.61C73.0237 0 49.0389 23.9847 49.0389 53.5714C49.0389 83.1581 73.0237 107.143 102.61 107.143H248.714C254.632 107.143 259.429 111.94 259.429 117.857C259.429 123.774 254.632 128.571 248.714 128.571L53.9091 128.571C24.3224 128.571 0.337646 152.556 0.337646 182.143C0.337646 211.73 24.3224 235.714 53.9091 235.714L248.714 235.714C254.632 235.714 259.429 240.511 259.429 246.429C259.429 252.346 254.632 257.143 248.714 257.143L24.6883 257.143V300L248.714 300C278.301 300 302.286 276.015 302.286 246.429C302.286 216.842 278.301 192.857 248.714 192.857L53.9091 192.857C47.9918 192.857 43.1948 188.06 43.1948 182.143C43.1948 176.226 47.9917 171.429 53.9091 171.429L248.714 171.429C278.301 171.429 302.286 147.444 302.286 117.857C302.286 88.2704 278.301 64.2857 248.714 64.2857H102.61C96.693 64.2857 91.8961 59.4888 91.8961 53.5714C91.8961 47.6541 96.693 42.8571 102.61 42.8571H152.286ZM110.403 31.1688C105.023 31.1688 100.662 26.808 100.662 21.4286C100.662 16.0492 105.023 11.6883 110.403 11.6883C115.782 11.6883 120.143 16.0492 120.143 21.4286C120.143 26.808 115.782 31.1688 110.403 31.1688Z" fill="#E7DAD9"/>
</svg>
