<svg width="302" height="300" viewBox="0 0 302 300" fill="none" xmlns="http://www.w3.org/2000/svg">
<path fill-rule="evenodd" clip-rule="evenodd" d="M151.948 42.8571V37.013L136.364 21.4286L151.948 5.8441V0H102.273C72.6861 0 48.7013 23.9847 48.7013 53.5714C48.7013 83.1581 72.6861 107.143 102.273 107.143H248.377C254.294 107.143 259.091 111.94 259.091 117.857C259.091 123.774 254.294 128.571 248.377 128.571L53.5714 128.571C23.9847 128.571 0 152.556 0 182.143C0 211.73 23.9847 235.714 53.5714 235.714L248.377 235.714C254.294 235.714 259.091 240.511 259.091 246.429C259.091 252.346 254.294 257.143 248.377 257.143L24.3507 257.143V300L248.377 300C277.963 300 301.948 276.015 301.948 246.429C301.948 216.842 277.963 192.857 248.377 192.857L53.5714 192.857C47.6541 192.857 42.8571 188.06 42.8571 182.143C42.8571 176.226 47.6541 171.429 53.5714 171.429L248.377 171.429C277.963 171.429 301.948 147.444 301.948 117.857C301.948 88.2704 277.963 64.2857 248.377 64.2857H102.273C96.3554 64.2857 91.5584 59.4888 91.5584 53.5714C91.5584 47.6541 96.3554 42.8571 102.273 42.8571H151.948ZM110.065 31.1688C104.686 31.1688 100.325 26.808 100.325 21.4286C100.325 16.0492 104.686 11.6883 110.065 11.6883C115.444 11.6883 119.805 16.0492 119.805 21.4286C119.805 26.808 115.444 31.1688 110.065 31.1688Z" fill="white"/>
</svg>
